<?xml version="1.0" encoding="UTF-8"?>
<!DOCTYPE svg PUBLIC "-//W3C//DTD SVG 1.1//EN" "http://www.w3.org/Graphics/SVG/1.1/DTD/svg11.dtd">
<svg xmlns="http://www.w3.org/2000/svg" version="1.1" width="100px" height="100px" style="shape-rendering:geometricPrecision; text-rendering:geometricPrecision; image-rendering:optimizeQuality; fill-rule:evenodd; clip-rule:evenodd" xmlns:xlink="http://www.w3.org/1999/xlink">
<g><path style="opacity:0.979" fill="#efefef" d="M 82.5,17.5 C 83.3729,23.1539 85.3729,28.1539 88.5,32.5C 91.6145,32.5548 93.9478,33.8881 95.5,36.5C 96.5591,41.4477 96.7258,46.4477 96,51.5C 95.0467,53.4552 93.7134,55.1218 92,56.5C 91.6667,66.1667 91.3333,75.8333 91,85.5C 90.1667,87.6667 88.6667,89.1667 86.5,90C 81.8452,90.4992 77.1785,90.6658 72.5,90.5C 68.6892,88.6896 67.0225,85.6896 67.5,81.5C 55.8799,79.5209 43.8799,78.8542 31.5,79.5C 32.0288,83.1916 31.0288,86.3583 28.5,89C 23.2919,90.3967 17.9586,90.8967 12.5,90.5C 10.8712,89.3747 9.37121,88.0414 8,86.5C 7.83223,76.4834 7.33223,66.4834 6.5,56.5C 4.80348,55.6364 3.63681,54.3031 3,52.5C 2.33333,47.5 2.33333,42.5 3,37.5C 4.83142,34.1606 7.66475,32.1606 11.5,31.5C 13.5,26.5 15.5,21.5 17.5,16.5C 18.0253,15.8076 18.6919,15.3076 19.5,15C 25.1958,14.8299 30.8624,14.3299 36.5,13.5C 36.968,11.8662 37.968,10.6995 39.5,10C 46.1667,9.33333 52.8333,9.33333 59.5,10C 60.9814,10.9803 62.3147,12.147 63.5,13.5C 68.8025,14.3295 74.1358,14.8295 79.5,15C 80.6906,15.6979 81.6906,16.5313 82.5,17.5 Z"/></g>
<g><path style="opacity:1" fill="#423b6f" d="M 41.5,14.5 C 46.5111,14.3341 51.5111,14.5007 56.5,15C 58.0368,16.1096 58.7035,17.6096 58.5,19.5C 64.5092,19.3338 70.5092,19.5005 76.5,20C 79.2405,25.2118 81.4072,30.7118 83,36.5C 85.8003,37.1276 88.467,38.1276 91,39.5C 91.6667,42.8333 91.6667,46.1667 91,49.5C 90.3005,51.032 89.1338,52.032 87.5,52.5C 86.6677,62.8173 86.1677,73.1506 86,83.5C 85.5,84 85,84.5 84.5,85C 74.6789,88.0086 70.6789,84.5086 72.5,74.5C 57.1667,74.5 41.8333,74.5 26.5,74.5C 28.3211,84.5086 24.3211,88.0086 14.5,85C 14,84.5 13.5,84 13,83.5C 12.5002,73.172 12.3335,62.8387 12.5,52.5C 10.0885,52.8633 8.58854,51.8633 8,49.5C 7.33333,46.1667 7.33333,42.8333 8,39.5C 10.4343,37.9767 13.101,36.9767 16,36.5C 17.5928,30.7118 19.7595,25.2118 22.5,20C 28.4908,19.5005 34.4908,19.3338 40.5,19.5C 40.6287,17.7839 40.962,16.1172 41.5,14.5 Z"/></g>
<g><path style="opacity:1" fill="#ea8332" d="M 56.5,22.5 C 51.8333,22.5 47.1667,22.5 42.5,22.5C 43.038,20.8828 43.3713,19.2161 43.5,17.5C 47.5,17.5 51.5,17.5 55.5,17.5C 55.6287,19.2161 55.962,20.8828 56.5,22.5 Z"/></g>
<g><path style="opacity:0.197" fill="#141414" d="M 82.5,17.5 C 85.2624,22.1049 87.2624,27.1049 88.5,32.5C 85.3729,28.1539 83.3729,23.1539 82.5,17.5 Z"/></g>
<g><path style="opacity:1" fill="#fdc471" d="M 42.5,22.5 C 47.1667,22.5 51.8333,22.5 56.5,22.5C 62.8333,22.5 69.1667,22.5 75.5,22.5C 77.2224,28.1682 79.0558,33.8349 81,39.5C 83.3806,40.435 85.8806,40.7683 88.5,40.5C 88.5,43.5 88.5,46.5 88.5,49.5C 86.8561,49.2865 85.3561,49.6198 84,50.5C 83.5004,57.4921 83.3337,64.4921 83.5,71.5C 60.8333,71.5 38.1667,71.5 15.5,71.5C 15.6663,64.4921 15.4996,57.4921 15,50.5C 13.6439,49.6198 12.1439,49.2865 10.5,49.5C 10.5,46.5 10.5,43.5 10.5,40.5C 13.1194,40.7683 15.6194,40.435 18,39.5C 19.9442,33.8349 21.7776,28.1682 23.5,22.5C 29.8333,22.5 36.1667,22.5 42.5,22.5 Z"/></g>
<g><path style="opacity:1" fill="#d9edfd" d="M 71.5,40.5 C 68.7293,33.9506 64.0626,32.1173 57.5,35C 55.393,36.2635 54.393,38.0968 54.5,40.5C 43.4798,40.8321 32.4798,40.4988 21.5,39.5C 23.0733,34.9447 24.74,30.4447 26.5,26C 41.8333,25.3333 57.1667,25.3333 72.5,26C 74.26,30.4447 75.9267,34.9447 77.5,39.5C 75.604,40.4656 73.604,40.7989 71.5,40.5 Z"/></g>
<g><path style="opacity:1" fill="#9eabc8" d="M 71.5,40.5 C 70.5,40.5 69.5,40.5 68.5,40.5C 66.0872,36.3147 62.7539,35.4813 58.5,38C 57.7476,38.6708 57.4142,39.5041 57.5,40.5C 56.5,40.5 55.5,40.5 54.5,40.5C 54.393,38.0968 55.393,36.2635 57.5,35C 64.0626,32.1173 68.7293,33.9506 71.5,40.5 Z"/></g>
<g><path style="opacity:1" fill="#d5e9fb" d="M 68.5,40.5 C 64.8333,40.5 61.1667,40.5 57.5,40.5C 57.4142,39.5041 57.7476,38.6708 58.5,38C 62.7539,35.4813 66.0872,36.3147 68.5,40.5 Z"/></g>
<g><path style="opacity:0.309" fill="#020202" d="M 95.5,36.5 C 96.7899,37.0577 97.6232,38.0577 98,39.5C 98.6667,44.5 98.6667,49.5 98,54.5C 97.3632,56.3031 96.1965,57.6364 94.5,58.5C 93.6678,68.4834 93.1678,78.4834 93,88.5C 91.8333,89.6667 90.6667,90.8333 89.5,92C 84.1667,92.6667 78.8333,92.6667 73.5,92C 72.944,91.6174 72.6107,91.1174 72.5,90.5C 77.1785,90.6658 81.8452,90.4992 86.5,90C 88.6667,89.1667 90.1667,87.6667 91,85.5C 91.3333,75.8333 91.6667,66.1667 92,56.5C 93.7134,55.1218 95.0467,53.4552 96,51.5C 96.7258,46.4477 96.5591,41.4477 95.5,36.5 Z"/></g>
<g><path style="opacity:1" fill="#40396e" d="M 36.5,50.5 C 45.1731,50.3336 53.8397,50.5002 62.5,51C 63.6295,55.0785 63.7961,59.2452 63,63.5C 54.245,64.6497 45.4117,64.8163 36.5,64C 35.1943,59.5006 35.1943,55.0006 36.5,50.5 Z"/></g>
<g><path style="opacity:1" fill="#f2efeb" d="M 23.5,53.5 C 29.4877,53.664 30.821,56.164 27.5,61C 21.4034,61.1475 20.0701,58.6475 23.5,53.5 Z"/></g>
<g><path style="opacity:1" fill="#f2efeb" d="M 71.5,53.5 C 77.4877,53.664 78.821,56.164 75.5,61C 69.4034,61.1475 68.0701,58.6475 71.5,53.5 Z"/></g>
<g><path style="opacity:0.326" fill="#000000" d="M 67.5,81.5 C 56.1667,81.5 44.8333,81.5 33.5,81.5C 34.3815,85.9093 33.0482,89.4093 29.5,92C 24.1667,92.6667 18.8333,92.6667 13.5,92C 12.944,91.6174 12.6107,91.1174 12.5,90.5C 17.9586,90.8967 23.2919,90.3967 28.5,89C 31.0288,86.3583 32.0288,83.1916 31.5,79.5C 43.8799,78.8542 55.8799,79.5209 67.5,81.5 Z"/></g>
</svg>
