<?xml version="1.0" encoding="UTF-8"?>
<!DOCTYPE svg PUBLIC "-//W3C//DTD SVG 1.1//EN" "http://www.w3.org/Graphics/SVG/1.1/DTD/svg11.dtd">
<svg xmlns="http://www.w3.org/2000/svg" version="1.1" width="100px" height="100px" style="shape-rendering:geometricPrecision; text-rendering:geometricPrecision; image-rendering:optimizeQuality; fill-rule:evenodd; clip-rule:evenodd" xmlns:xlink="http://www.w3.org/1999/xlink">
<g><path style="opacity:0.958" fill="#e9e9ea" d="M 85.5,23.5 C 85.7376,25.4044 86.7376,26.7377 88.5,27.5C 89.3382,27.8417 89.6716,28.5084 89.5,29.5C 98.4838,53.71 92.4838,73.21 71.5,88C 57.7135,94.7033 43.7135,95.2033 29.5,89.5C 28.5084,89.6716 27.8417,89.3382 27.5,88.5C 26.7377,86.7376 25.4044,85.7376 23.5,85.5C 6.97496,72.7214 1.47496,56.0547 7,35.5C 16.6562,12.0808 34.1562,2.24747 59.5,6C 70.4405,8.62418 79.1072,14.4575 85.5,23.5 Z"/></g>
<g><path style="opacity:1" fill="#4a4472" d="M 41.5,10.5 C 65.0668,9.01641 80.5668,19.3497 88,41.5C 89.4659,72.6994 74.6325,88.1994 43.5,88C 19.7555,81.7158 8.92212,66.2158 11,41.5C 15.5136,25.5136 25.6802,15.1803 41.5,10.5 Z"/></g>
<g><path style="opacity:1" fill="#95c162" d="M 41.5,13.5 C 61.7597,11.706 75.9264,20.0393 84,38.5C 88.2144,59.9048 80.3811,75.0714 60.5,84C 38.9813,88.4841 23.8146,80.6507 15,60.5C 10.4829,37.2076 19.3162,21.5409 41.5,13.5 Z"/></g>
<g><path style="opacity:0.408" fill="#454545" d="M 85.5,23.5 C 87.2624,24.2623 88.2624,25.5956 88.5,27.5C 86.7376,26.7377 85.7376,25.4044 85.5,23.5 Z"/></g>
<g><path style="opacity:1" fill="#fdfdfc" d="M 47.5,28.5 C 49.1439,28.2865 50.6439,28.6198 52,29.5C 52.4994,35.1569 52.6661,40.8236 52.5,46.5C 58.1764,46.3339 63.8431,46.5006 69.5,47C 70.8333,48.6667 70.8333,50.3333 69.5,52C 63.8431,52.4994 58.1764,52.6661 52.5,52.5C 52.6661,58.1764 52.4994,63.8431 52,69.5C 50.3333,70.8333 48.6667,70.8333 47,69.5C 46.5006,63.8431 46.3339,58.1764 46.5,52.5C 40.8236,52.6661 35.1569,52.4994 29.5,52C 28.1667,50.3333 28.1667,48.6667 29.5,47C 35.1569,46.5006 40.8236,46.3339 46.5,46.5C 46.2114,40.4093 46.5447,34.4093 47.5,28.5 Z"/></g>
<g><path style="opacity:0.264" fill="#060606" d="M 89.5,29.5 C 90.7899,30.0577 91.6232,31.0577 92,32.5C 100.638,57.2544 94.1376,76.7544 72.5,91C 59.3106,96.5925 45.9773,96.9258 32.5,92C 31.0577,91.6232 30.0577,90.7899 29.5,89.5C 43.7135,95.2033 57.7135,94.7033 71.5,88C 92.4838,73.21 98.4838,53.71 89.5,29.5 Z"/></g>
<g><path style="opacity:0.38" fill="#414141" d="M 23.5,85.5 C 25.4044,85.7376 26.7377,86.7376 27.5,88.5C 25.5956,88.2624 24.2623,87.2624 23.5,85.5 Z"/></g>
</svg>
