<?xml version="1.0" encoding="UTF-8"?>
<!DOCTYPE svg PUBLIC "-//W3C//DTD SVG 1.1//EN" "http://www.w3.org/Graphics/SVG/1.1/DTD/svg11.dtd">
<svg xmlns="http://www.w3.org/2000/svg" version="1.1" width="100px" height="100px" style="shape-rendering:geometricPrecision; text-rendering:geometricPrecision; image-rendering:optimizeQuality; fill-rule:evenodd; clip-rule:evenodd" xmlns:xlink="http://www.w3.org/1999/xlink">
<g><path style="opacity:0.983" fill="#eeeeee" d="M 97.5,23.5 C 97.6666,38.1705 97.4999,52.8371 97,67.5C 96.1667,68.3333 95.3333,69.1667 94.5,70C 87.1441,70.1687 79.8108,70.6687 72.5,71.5C 71.3687,75.7975 68.702,78.6308 64.5,80C 56.7439,80.041 49.0772,79.2076 41.5,77.5C 40.7387,76.6091 39.7387,75.9424 38.5,75.5C 36.6147,76.6094 34.6147,77.4427 32.5,78C 22.8391,78.4998 13.1724,78.6665 3.5,78.5C 2.53128,77.6906 1.69794,76.6906 1,75.5C 0.333333,64.8333 0.333333,54.1667 1,43.5C 9.12583,36.5552 17.9592,30.5552 27.5,25.5C 28.5,24.1667 29.5,22.8333 30.5,21.5C 51.7902,20.3449 73.1235,20.1782 94.5,21C 95.6906,21.6979 96.6906,22.5313 97.5,23.5 Z"/></g>
<g><path style="opacity:0.332" fill="#1c1c19" d="M 97.5,23.5 C 98.1667,24.1667 98.8333,24.8333 99.5,25.5C 99.5,40.1667 99.5,54.8333 99.5,69.5C 98.6906,70.4687 97.6906,71.3021 96.5,72C 89.1742,72.4997 81.8409,72.6663 74.5,72.5C 73.9299,76.9115 71.5966,80.0782 67.5,82C 62.1202,82.5958 56.7869,82.2625 51.5,81C 48.6229,79.8732 45.6229,79.2065 42.5,79C 41.944,78.6174 41.6107,78.1174 41.5,77.5C 49.0772,79.2076 56.7439,80.041 64.5,80C 68.702,78.6308 71.3687,75.7975 72.5,71.5C 79.8108,70.6687 87.1441,70.1687 94.5,70C 95.3333,69.1667 96.1667,68.3333 97,67.5C 97.4999,52.8371 97.6666,38.1705 97.5,23.5 Z"/></g>
<g><path style="opacity:1" fill="#484072" d="M 34.5,25.5 C 53.1696,25.3334 71.8363,25.5001 90.5,26C 91,26.5 91.5,27 92,27.5C 92.6667,39.5 92.6667,51.5 92,63.5C 91.5,64 91,64.5 90.5,65C 82.5069,65.4997 74.5069,65.6664 66.5,65.5C 68.0453,71.3645 65.8787,74.6978 60,75.5C 54.3739,73.6919 48.5405,72.5253 42.5,72C 41.3333,70.8333 40.1667,69.6667 39,68.5C 36.5311,70.6515 33.6978,72.1515 30.5,73C 22.1733,73.4997 13.84,73.6664 5.5,73.5C 5.16836,64.1429 5.50169,54.8096 6.5,45.5C 12.3621,41.1384 18.3621,36.9718 24.5,33C 27.2065,31.0924 30.2065,30.259 33.5,30.5C 33.366,28.7085 33.6993,27.0418 34.5,25.5 Z"/></g>
<g><path style="opacity:1" fill="#d8edfe" d="M 89.5,33.5 C 71.8333,33.5 54.1667,33.5 36.5,33.5C 36.5,33.1667 36.5,32.8333 36.5,32.5C 36.5,31.1667 36.5,29.8333 36.5,28.5C 54.1667,28.5 71.8333,28.5 89.5,28.5C 89.5,30.1667 89.5,31.8333 89.5,33.5 Z"/></g>
<g><path style="opacity:1" fill="#fdb68a" d="M 36.5,32.5 C 36.5,32.8333 36.5,33.1667 36.5,33.5C 36.5,35.5 36.5,37.5 36.5,39.5C 36.5,43.1667 36.5,46.8333 36.5,50.5C 41.747,49.4731 46.9137,48.1398 52,46.5C 58.7395,48.3255 59.2395,51.4921 53.5,56C 50.5597,57.1524 47.5597,58.1524 44.5,59C 42.6763,59.66 41.343,60.8267 40.5,62.5C 37.6653,65.1653 34.6653,67.6653 31.5,70C 23.8406,70.4997 16.1739,70.6664 8.5,70.5C 8.33365,62.8261 8.50031,55.1594 9,47.5C 15.5,43 22,38.5 28.5,34C 31.2538,33.7276 33.9205,33.2276 36.5,32.5 Z"/></g>
<g><path style="opacity:1" fill="#6f7bbf" d="M 36.5,33.5 C 54.1667,33.5 71.8333,33.5 89.5,33.5C 89.5,35.5 89.5,37.5 89.5,39.5C 71.8333,39.5 54.1667,39.5 36.5,39.5C 36.5,37.5 36.5,35.5 36.5,33.5 Z"/></g>
<g><path style="opacity:1" fill="#d8ecfd" d="M 36.5,39.5 C 54.1667,39.5 71.8333,39.5 89.5,39.5C 89.5,47.1667 89.5,54.8333 89.5,62.5C 80.8333,62.5 72.1667,62.5 63.5,62.5C 56.1667,62.5 48.8333,62.5 41.5,62.5C 41.1667,62.5 40.8333,62.5 40.5,62.5C 41.343,60.8267 42.6763,59.66 44.5,59C 47.5597,58.1524 50.5597,57.1524 53.5,56C 59.2395,51.4921 58.7395,48.3255 52,46.5C 46.9137,48.1398 41.747,49.4731 36.5,50.5C 36.5,46.8333 36.5,43.1667 36.5,39.5 Z"/></g>
<g><path style="opacity:1" fill="#71bfff" d="M 60.5,43.5 C 68.8333,43.5 77.1667,43.5 85.5,43.5C 85.5,45.1667 85.5,46.8333 85.5,48.5C 77.1667,48.5 68.8333,48.5 60.5,48.5C 60.5,46.8333 60.5,45.1667 60.5,43.5 Z"/></g>
<g><path style="opacity:1" fill="#ffe0cc" d="M 51.5,48.5 C 55.1612,48.3501 56.1612,49.8501 54.5,53C 53.5509,53.6172 52.7175,53.4506 52,52.5C 51.51,51.2068 51.3433,49.8734 51.5,48.5 Z"/></g>
<g><path style="opacity:1" fill="#b8887e" d="M 41.5,62.5 C 48.8333,62.5 56.1667,62.5 63.5,62.5C 63.282,65.3663 63.1154,68.3663 63,71.5C 62.2753,72.0585 61.4419,72.3918 60.5,72.5C 56.4625,71.2578 52.4625,69.9244 48.5,68.5C 46.9017,69.4847 45.235,69.6514 43.5,69C 42.7699,66.846 42.1032,64.6794 41.5,62.5 Z"/></g>
<g><path style="opacity:0.33" fill="#1e1e1b" d="M 41.5,77.5 C 39.8599,78.3201 38.1932,79.1534 36.5,80C 26.1667,80.6667 15.8333,80.6667 5.5,80C 4.5842,79.7216 3.91753,79.2216 3.5,78.5C 13.1724,78.6665 22.8391,78.4998 32.5,78C 34.6147,77.4427 36.6147,76.6094 38.5,75.5C 39.7387,75.9424 40.7387,76.6091 41.5,77.5 Z"/></g>
</svg>
