<?xml version="1.0" encoding="UTF-8"?>
<!DOCTYPE svg PUBLIC "-//W3C//DTD SVG 1.1//EN" "http://www.w3.org/Graphics/SVG/1.1/DTD/svg11.dtd">
<svg xmlns="http://www.w3.org/2000/svg" version="1.1" width="100px" height="100px" style="shape-rendering:geometricPrecision; text-rendering:geometricPrecision; image-rendering:optimizeQuality; fill-rule:evenodd; clip-rule:evenodd" xmlns:xlink="http://www.w3.org/1999/xlink">
<g><path style="opacity:0.964" fill="#eaeaeb" d="M 73.5,6.5 C 73.0077,12.9855 71.6744,19.3188 69.5,25.5C 69.7472,26.7133 70.4138,27.38 71.5,27.5C 76.5874,31.2526 80.5874,35.9193 83.5,41.5C 83.427,43.0269 84.0937,44.0269 85.5,44.5C 86.3382,44.8417 86.6716,45.5084 86.5,46.5C 97.8759,80.966 85.3759,97.6326 49,96.5C 38.4656,97.5715 28.6323,95.5715 19.5,90.5C 17.2843,89.7974 15.451,88.4641 14,86.5C 11.8061,83.4456 10.1395,80.1122 9,76.5C 6.16389,55.1491 13.3306,38.1491 30.5,25.5C 27.3468,19.0798 26.3468,12.4131 27.5,5.5C 31.299,2.87204 35.1323,2.87204 39,5.5C 40.7395,4.10574 42.7395,3.43908 45,3.5C 48.3333,4.83333 51.6667,4.83333 55,3.5C 57.2605,3.43908 59.2605,4.10574 61,5.5C 65.5412,2.60633 69.7079,2.93967 73.5,6.5 Z"/></g>
<g><path style="opacity:0.313" fill="#1f1f1d" d="M 73.5,6.5 C 74.9723,8.11747 75.639,10.1175 75.5,12.5C 74.5657,17.6316 73.2324,22.6316 71.5,27.5C 70.4138,27.38 69.7472,26.7133 69.5,25.5C 71.6744,19.3188 73.0077,12.9855 73.5,6.5 Z"/></g>
<g><path style="opacity:1" fill="#4a4377" d="M 32.5,8.5 C 34.7991,9.77777 37.1324,11.1111 39.5,12.5C 41.204,10.9587 43.0374,9.6254 45,8.5C 46.9439,9.43935 48.6106,10.7727 50,12.5C 51.3894,10.7727 53.0561,9.43935 55,8.5C 56.9626,9.6254 58.796,10.9587 60.5,12.5C 62.9823,10.6565 65.649,9.32313 68.5,8.5C 67.1085,13.844 65.6085,19.1774 64,24.5C 63.3333,26.1667 63.3333,27.8333 64,29.5C 83.3572,42.9013 89.0238,60.5679 81,82.5C 71.6525,89.2973 61.1525,92.2973 49.5,91.5C 37.68,92.8418 27.18,89.8418 18,82.5C 10.7362,64.1618 14.2362,47.9951 28.5,34C 31.328,31.7519 34.328,29.7519 37.5,28C 35.6076,22.1569 33.6076,16.3235 31.5,10.5C 31.8627,9.81654 32.1961,9.14987 32.5,8.5 Z"/></g>
<g><path style="opacity:1" fill="#717cbd" d="M 59.5,27.5 C 53.2252,28.418 46.8918,28.7513 40.5,28.5C 38.8018,23.9171 37.6352,19.2504 37,14.5C 38.1332,16.2112 39.6332,16.7112 41.5,16C 42.6667,14.8333 43.8333,13.6667 45,12.5C 48.3333,17.8333 51.6667,17.8333 55,12.5C 56.3894,14.2273 58.0561,15.5606 60,16.5C 61.2613,16.2409 62.2613,15.5742 63,14.5C 62.5342,19.0577 61.3676,23.3911 59.5,27.5 Z"/></g>
<g><path style="opacity:1" fill="#efb357" d="M 59.5,27.5 C 59.5,28.5 59.5,29.5 59.5,30.5C 55.8809,31.1805 52.2142,31.6805 48.5,32C 41.747,38.0058 38.0803,45.5058 37.5,54.5C 36.5,54.5 35.5,54.5 34.5,54.5C 34.3367,52.1432 34.5034,49.8098 35,47.5C 36.4186,44.0262 37.752,40.6929 39,37.5C 30.6043,45.6711 26.2709,55.6711 26,67.5C 25.586,67.9574 25.086,68.2907 24.5,68.5C 23.1941,53.4415 28.6941,41.4415 41,32.5C 41.6917,31.5632 41.525,30.8966 40.5,30.5C 40.5,29.8333 40.5,29.1667 40.5,28.5C 46.8918,28.7513 53.2252,28.418 59.5,27.5 Z"/></g>
<g><path style="opacity:1" fill="#717cbe" d="M 40.5,30.5 C 41.525,30.8966 41.6917,31.5632 41,32.5C 28.6941,41.4415 23.1941,53.4415 24.5,68.5C 25.086,68.2907 25.586,67.9574 26,67.5C 26.2709,55.6711 30.6043,45.6711 39,37.5C 37.752,40.6929 36.4186,44.0262 35,47.5C 34.5034,49.8098 34.3367,52.1432 34.5,54.5C 35.5,54.5 36.5,54.5 37.5,54.5C 38.0803,45.5058 41.747,38.0058 48.5,32C 52.2142,31.6805 55.8809,31.1805 59.5,30.5C 78.175,41.51 85.0083,57.51 80,78.5C 71.5119,86.6416 61.3452,89.975 49.5,88.5C 17.3903,88.729 8.55702,74.3957 23,45.5C 27.498,38.8275 33.3313,33.8275 40.5,30.5 Z"/></g>
<g><path style="opacity:0.204" fill="#313131" d="M 83.5,41.5 C 84.9063,41.9731 85.573,42.9731 85.5,44.5C 84.0937,44.0269 83.427,43.0269 83.5,41.5 Z"/></g>
<g><path style="opacity:1" fill="#f5bf76" d="M 47.5,48.5 C 51.5293,47.8834 54.8626,49.0501 57.5,52C 57.3865,53.2798 56.7199,54.1131 55.5,54.5C 52.4658,52.898 49.7991,53.2313 47.5,55.5C 48.6888,56.4287 50.0222,56.762 51.5,56.5C 51.5,57.5 51.5,58.5 51.5,59.5C 49.8333,59.5 48.1667,59.5 46.5,59.5C 46.5,60.5 46.5,61.5 46.5,62.5C 48.1667,62.5 49.8333,62.5 51.5,62.5C 51.5,63.5 51.5,64.5 51.5,65.5C 50.0222,65.238 48.6888,65.5713 47.5,66.5C 49.7991,68.7687 52.4658,69.102 55.5,67.5C 56.7199,67.8869 57.3865,68.7202 57.5,70C 50.5642,75.5063 45.2309,74.1729 41.5,66C 40.552,65.5172 39.552,65.3505 38.5,65.5C 38.2965,63.6096 38.9632,62.1096 40.5,61C 38.9632,59.8904 38.2965,58.3904 38.5,56.5C 39.675,56.719 40.675,56.3857 41.5,55.5C 42.8334,52.5067 44.8334,50.1734 47.5,48.5 Z"/></g>
<g><path style="opacity:0.303" fill="#1f1f1c" d="M 86.5,46.5 C 89.3792,50.2952 91.2125,54.6286 92,59.5C 96.5479,81.2445 88.0479,94.0779 66.5,98C 56.5,98.6667 46.5,98.6667 36.5,98C 32.7235,97.4079 29.0569,96.4079 25.5,95C 22.8936,94.2082 20.8936,92.7082 19.5,90.5C 28.6323,95.5715 38.4656,97.5715 49,96.5C 85.3759,97.6326 97.8759,80.966 86.5,46.5 Z"/></g>
</svg>
