<?xml version="1.0" encoding="UTF-8"?>
<!DOCTYPE svg PUBLIC "-//W3C//DTD SVG 1.1//EN" "http://www.w3.org/Graphics/SVG/1.1/DTD/svg11.dtd">
<svg xmlns="http://www.w3.org/2000/svg" version="1.1" width="100px" height="100px" style="shape-rendering:geometricPrecision; text-rendering:geometricPrecision; image-rendering:optimizeQuality; fill-rule:evenodd; clip-rule:evenodd" xmlns:xlink="http://www.w3.org/1999/xlink">
<g><path style="opacity:0.958" fill="#e9e9ea" d="M 84.5,22.5 C 84.7376,24.4044 85.7376,25.7377 87.5,26.5C 88.3382,26.8417 88.6716,27.5084 88.5,28.5C 97.4838,52.71 91.4838,72.21 70.5,87C 56.7135,93.7033 42.7135,94.2033 28.5,88.5C 27.5084,88.6716 26.8417,88.3382 26.5,87.5C 25.7377,85.7376 24.4044,84.7376 22.5,84.5C 5.97496,71.7214 0.474959,55.0547 6,34.5C 15.6562,11.0808 33.1562,1.24747 58.5,5C 69.4405,7.62418 78.1072,13.4575 84.5,22.5 Z"/></g>
<g><path style="opacity:1" fill="#4f4172" d="M 40.5,9.5 C 71.1266,8.51412 86.6266,23.1808 87,53.5C 81.6781,77.1413 66.8448,88.308 42.5,87C 18.7555,80.7158 7.92212,65.2158 10,40.5C 14.5136,24.5136 24.6802,14.1803 40.5,9.5 Z"/></g>
<g><path style="opacity:1" fill="#f2655c" d="M 41.5,12.5 C 63.487,10.8977 77.6537,20.5644 84,41.5C 86.1992,64.6177 76.0325,78.7843 53.5,84C 31.4322,85.2708 17.9322,75.1041 13,53.5C 11.7117,32.2945 21.2117,18.6278 41.5,12.5 Z"/></g>
<g><path style="opacity:0.408" fill="#454545" d="M 84.5,22.5 C 86.2624,23.2623 87.2624,24.5956 87.5,26.5C 85.7376,25.7377 84.7376,24.4044 84.5,22.5 Z"/></g>
<g><path style="opacity:0.264" fill="#060606" d="M 88.5,28.5 C 89.7899,29.0577 90.6232,30.0577 91,31.5C 99.6376,56.2544 93.1376,75.7544 71.5,90C 58.3106,95.5925 44.9773,95.9258 31.5,91C 30.0577,90.6232 29.0577,89.7899 28.5,88.5C 42.7135,94.2033 56.7135,93.7033 70.5,87C 91.4838,72.21 97.4838,52.71 88.5,28.5 Z"/></g>
<g><path style="opacity:1" fill="#fffcfc" d="M 28.5,45.5 C 41.8375,45.3334 55.1708,45.5001 68.5,46C 69.8333,47.6667 69.8333,49.3333 68.5,51C 55.1667,51.6667 41.8333,51.6667 28.5,51C 27.2475,49.1722 27.2475,47.3388 28.5,45.5 Z"/></g>
<g><path style="opacity:0.38" fill="#414141" d="M 22.5,84.5 C 24.4044,84.7376 25.7377,85.7376 26.5,87.5C 24.5956,87.2624 23.2623,86.2624 22.5,84.5 Z"/></g>
</svg>
